<?xml version="1.0" encoding="UTF-8" standalone="no"?><!DOCTYPE svg PUBLIC "-//W3C//DTD SVG 1.1//EN" "http://www.w3.org/Graphics/SVG/1.1/DTD/svg11.dtd"><svg width="100%" height="100%" viewBox="0 0 378 402" version="1.1" xmlns="http://www.w3.org/2000/svg" xmlns:xlink="http://www.w3.org/1999/xlink" xml:space="preserve" xmlns:serif="http://www.serif.com/" style="fill-rule:evenodd;clip-rule:evenodd;stroke-linejoin:round;stroke-miterlimit:2;"><path d="M367.809,14.365c1.963,-2.78 2.213,-6.423 0.647,-9.445c-1.565,-3.023 -4.685,-4.92 -8.089,-4.92c-49.237,-0 -186.648,-0 -213.901,-0c-2.968,-0 -5.749,1.445 -7.455,3.873c-17.581,25.023 -115.035,163.724 -135.314,192.587c-2.216,3.154 -2.207,7.363 0.023,10.508c20.329,28.665 117.708,165.976 135.289,190.767c1.708,2.408 4.478,3.84 7.431,3.84c27.195,-0 164.687,-0 213.934,-0c3.403,-0 6.522,-1.897 8.088,-4.919c1.566,-3.021 1.318,-6.664 -0.645,-9.444c-28.694,-40.664 -109.596,-155.312 -127.889,-181.235c-2.223,-3.15 -2.222,-7.359 0.002,-10.508c18.294,-25.909 99.178,-140.457 127.879,-181.104Z" style="fill:#96595c;"/></svg>