<?xml version="1.0" encoding="UTF-8" standalone="no"?><!DOCTYPE svg PUBLIC "-//W3C//DTD SVG 1.1//EN" "http://www.w3.org/Graphics/SVG/1.1/DTD/svg11.dtd"><svg width="100%" height="100%" viewBox="0 0 378 402" version="1.1" xmlns="http://www.w3.org/2000/svg" xmlns:xlink="http://www.w3.org/1999/xlink" xml:space="preserve" xmlns:serif="http://www.serif.com/" style="fill-rule:evenodd;clip-rule:evenodd;stroke-linejoin:round;stroke-miterlimit:2;"><path d="M10.144,14.365c-1.964,-2.78 -2.213,-6.423 -0.648,-9.445c1.566,-3.023 4.686,-4.92 8.09,-4.92c49.237,-0 186.647,-0 213.901,-0c2.967,-0 5.749,1.445 7.455,3.873c17.581,25.023 115.034,163.724 135.314,192.587c2.216,3.154 2.207,7.363 -0.023,10.508c-20.329,28.665 -117.708,165.976 -135.289,190.767c-1.708,2.408 -4.478,3.84 -7.431,3.84c-27.196,-0 -164.687,-0 -213.934,-0c-3.403,-0 -6.523,-1.897 -8.089,-4.919c-1.565,-3.021 -1.317,-6.664 0.645,-9.444c28.695,-40.664 109.597,-155.312 127.889,-181.235c2.223,-3.15 2.223,-7.359 -0.001,-10.508c-18.294,-25.909 -99.179,-140.457 -127.879,-181.104Z" style="fill:#62907d;"/></svg>